<svg version="1.0" xmlns="http://www.w3.org/2000/svg" width="266.000000ptpx" height="86.000000ptpx" viewBox="0 0 266.000000 86.000000" preserveAspectRatio="xMidYMid meet" transform="rotate(0) scale(1, 1)">

<g transform="translate(0.000000,86.000000) scale(0.100000,-0.100000)" fill="#db1a27" stroke="none">
<path d="M483 740 c-58 -35 -63 -58 -63 -270 0 -257 15 -290 131 -290 67 0&#10;115 27 141 80 25 49 26 385 3 431 -23 44 -71 69 -130 69 -32 0 -62 -7 -82 -20z&#10;m115 -72 c8 -8 12 -66 12 -194 0 -198 -3 -208 -57 -202 l-28 3 -3 189 c-2 130&#10;1 193 9 202 14 17 51 18 67 2z"/>
<path d="M100 439 l0 -311 23 6 c12 3 34 6 50 6 l27 0 0 119 0 118 50 6 c94&#10;11 130 57 137 172 6 90 -11 142 -56 172 -30 20 -46 23 -132 23 l-99 0 0 -311z&#10;m186 196 c10 -42 -1 -146 -17 -156 -8 -5 -26 -9 -41 -9 l-28 0 0 95 0 95 40 0&#10;c34 0 41 -4 46 -25z"/>
<path d="M770 480 l0 -270 50 0 50 0 0 115 c0 113 0 115 23 115 50 0 61 -20&#10;65 -124 l4 -96 51 0 50 0 -5 98 c-5 95 -17 139 -45 155 -11 7 -9 14 12 38 21&#10;26 25 40 25 100 0 39 -5 79 -11 91 -18 33 -70 48 -174 48 l-95 0 0 -270z m178&#10;173 c4 -10 7 -40 6 -66 -1 -53 -12 -67 -56 -67 l-28 0 0 75 0 75 35 0 c25 0&#10;38 -5 43 -17z"/>
<path d="M1110 485 l0 -265 45 0 45 0 2 187 3 188 55 -185 55 -185 50 0 50 0&#10;3 263 2 262 -45 0 -44 0 -3 -146 -3 -146 -44 146 -44 146 -64 0 -63 0 0 -265z"/>
<path d="M1480 485 l0 -265 50 0 50 0 0 115 0 115 61 0 60 0 -3 38 -3 37 -57&#10;3 -58 3 0 69 0 70 75 0 75 0 0 40 0 40 -125 0 -125 0 0 -265z"/>
<path d="M1780 481 l0 -268 83 -6 c45 -4 101 -7 125 -7 l42 0 0 39 c0 39 -1&#10;40 -42 45 -24 3 -59 7 -78 8 l-35 3 0 228 0 227 -47 0 -48 0 0 -269z"/>
<path d="M2070 470 c0 -267 1 -280 19 -280 10 0 33 -3 50 -6 l31 -6 0 286 0&#10;286 -50 0 -50 0 0 -280z"/>
<path d="M2222 738 c3 -7 25 -69 48 -138 l44 -125 -52 -147 c-55 -159 -55&#10;-158 11 -158 32 0 32 1 68 113 l36 112 39 -125 40 -125 49 -7 c27 -4 50 -6 51&#10;-5 1 1 -22 77 -51 168 l-52 167 49 138 c26 77 48 140 48 142 0 2 -21 2 -47 0&#10;l-46 -3 -31 -92 c-17 -50 -33 -94 -36 -97 -4 -3 -21 40 -39 94 l-32 100 -51 0&#10;c-36 0 -49 -4 -46 -12z"/>
</g>
</svg>